<svg width="388" height="237" viewBox="0 0 388 237" fill="none" xmlns="http://www.w3.org/2000/svg">
<g clip-path="url(#clip0_9_22)">
<path d="M-0.25293 107.06V237.089H388.252V107.06H-0.25293ZM145.189 125.953C151.799 125.953 157.963 127.141 163.681 129.531C169.436 131.816 174.462 135.09 178.731 139.354C183.086 143.538 186.446 148.436 188.833 154.064C191.224 159.613 192.417 165.627 192.417 172.078C192.417 178.535 191.226 184.574 188.833 190.214C186.442 195.764 183.088 200.652 178.744 204.911C174.478 209.091 169.449 212.376 163.677 214.753C157.951 217.061 151.791 218.196 145.189 218.196C138.587 218.196 132.422 217.056 126.708 214.753C121.001 212.369 115.98 209.093 111.64 204.924L111.628 204.911L111.616 204.905C107.366 200.654 104.015 195.761 101.551 190.239C99.1461 184.571 97.9544 178.535 97.9544 172.079C97.9544 165.628 99.1441 159.616 101.538 154.058C104.007 148.439 107.366 143.537 111.628 139.361C115.976 135.098 121.001 131.825 126.708 129.525C132.407 127.143 138.579 125.953 145.189 125.953ZM241.949 126.08C248.465 126.08 254.917 127.182 261.327 129.375C267.806 131.563 273.561 134.599 278.565 138.5L279.815 139.476L268.288 155.435L266.948 154.41C258.125 147.672 249.415 144.399 240.712 144.399C237.649 144.399 235.04 144.792 232.872 145.54C230.689 146.293 229.101 147.307 228.014 148.529C227.039 149.634 226.583 150.86 226.583 152.488C226.583 153.605 226.78 154.528 227.142 155.313C227.497 156.085 228.015 156.74 228.754 157.327L228.76 157.333C230.269 158.445 233.232 159.515 237.534 160.232L253.803 162.941C262.612 164.367 269.419 167.22 274.012 171.636C278.636 175.994 280.918 181.774 280.918 188.833C280.918 194.73 279.351 199.951 276.183 204.439C273.007 208.85 268.532 212.217 262.782 214.62C257.111 216.94 250.484 218.075 242.931 218.075C235.742 218.075 228.73 216.764 221.891 214.146C215.034 211.438 208.949 207.633 203.621 202.729L202.5 201.693L214.753 186.335L216.051 187.48C220.965 191.83 225.639 194.932 230.028 196.812C234.501 198.696 239.196 199.637 244.161 199.637C247.65 199.637 250.613 199.231 253.038 198.473C255.439 197.641 257.159 196.528 258.314 195.168L258.325 195.149L258.345 195.131C259.576 193.762 260.138 192.284 260.138 190.432C260.138 189.151 259.912 188.103 259.497 187.225C259.082 186.347 258.479 185.622 257.61 184.987L257.592 184.974L257.58 184.962C255.837 183.622 252.373 182.339 247.327 181.458L230.209 178.498C222.662 177.226 216.72 174.528 212.552 170.272C208.43 165.97 206.422 160.464 206.422 153.839C206.422 148.201 207.858 143.235 210.776 138.99C213.784 134.744 217.933 131.566 223.206 129.404C228.532 127.171 234.804 126.08 241.949 126.08ZM329.958 126.08C336.473 126.08 342.934 127.182 349.344 129.375C355.823 131.563 361.572 134.599 366.575 138.5L367.825 139.476L356.298 155.435L354.957 154.41C346.134 147.672 337.43 144.399 328.727 144.399C325.664 144.399 323.048 144.793 320.881 145.54C318.698 146.293 317.111 147.307 316.025 148.529C315.052 149.632 314.6 150.856 314.6 152.488C314.6 153.606 314.798 154.528 315.158 155.313C315.513 156.085 316.027 156.741 316.764 157.327L316.771 157.333C318.278 158.444 321.249 159.515 325.551 160.232L341.812 162.941C350.62 164.367 357.429 167.22 362.022 171.636C366.646 175.993 368.933 181.773 368.933 188.833C368.933 194.732 367.36 199.952 364.193 204.439C361.017 208.85 356.542 212.217 350.792 214.62C345.121 216.94 338.494 218.075 330.941 218.075C323.752 218.075 316.74 216.764 309.901 214.146C303.044 211.438 296.959 207.633 291.632 202.729L290.51 201.693L302.77 186.335L304.068 187.48C308.982 191.831 313.65 194.932 318.038 196.812C322.511 198.696 327.212 199.637 332.178 199.637C335.666 199.637 338.622 199.231 341.048 198.473C343.45 197.641 345.175 196.526 346.329 195.168L346.342 195.149L346.36 195.131C347.59 193.764 348.149 192.287 348.149 190.432C348.149 189.151 347.921 188.103 347.506 187.225C347.091 186.347 346.488 185.622 345.619 184.987L345.6 184.974L345.588 184.962C343.845 183.621 340.388 182.339 335.342 181.458L318.218 178.498C310.67 177.226 304.734 174.528 300.567 170.272C296.445 165.97 294.431 160.465 294.431 153.839C294.431 148.201 295.867 143.235 298.785 138.99C301.793 134.743 305.949 131.565 311.221 129.404C316.546 127.171 322.812 126.08 329.958 126.08ZM19.0641 127.312H89.0056V146.121H40.2133V163.164H72.6164V181.482H40.2133V216.843H19.0641V127.312ZM145.189 145.628C141.538 145.628 138.208 146.323 135.141 147.702L135.13 147.709L135.111 147.715C132.019 149.029 129.336 150.865 127.022 153.256C124.7 155.578 122.894 158.342 121.572 161.606C120.258 164.776 119.601 168.206 119.601 171.955C119.601 175.791 120.26 179.305 121.572 182.549C122.895 185.817 124.708 188.627 127.022 191.019C129.317 193.314 132.008 195.162 135.111 196.562C135.118 196.565 135.127 196.565 135.135 196.568L135.142 196.574C138.207 197.872 141.54 198.527 145.189 198.527C148.928 198.527 152.301 197.867 155.363 196.569C158.475 195.168 161.169 193.317 163.489 190.996C165.785 188.624 167.598 185.818 168.921 182.55C170.236 179.301 170.898 175.826 170.898 172.079C170.898 168.245 170.236 164.773 168.928 161.619C167.601 158.341 165.792 155.586 163.489 153.283C161.155 150.872 158.479 149.03 155.388 147.716L155.37 147.71L155.357 147.704C152.295 146.326 148.926 145.628 145.189 145.628Z" fill="#0E0E41" stroke="#0E0E41" stroke-width="1.6386"/>
<path d="M37.7689 23.5077C17.3144 23.5077 -0.252411 40.4135 -0.252411 61.4696C-0.252411 76.3893 9.85451 90.1652 25.3758 90.1652C37.8892 90.1652 48.4164 79.938 48.4164 67.184C48.4164 54.2496 37.7689 43.7215 25.0149 43.7215C22.8491 43.7215 20.3817 43.9621 16.6518 46.2482C21.1037 38.4274 29.5863 35.4194 37.5876 35.4194C38.1029 35.4194 38.6135 35.4411 39.1213 35.4706C52.7178 36.2952 63.3291 47.7419 63.3297 61.593C63.3018 69.5941 59.7329 76.7803 54.102 81.5758L62.68 90.1539C70.5083 83.1582 75.4271 72.957 75.4292 61.6315C75.4261 41.1781 59.4045 24.3714 39.1213 23.5428C38.6714 23.5273 38.2221 23.5077 37.7689 23.5077ZM24.9539 55.8739C31.0903 55.8739 36.3844 60.9273 36.3844 67.184C36.3844 73.2602 31.3919 78.1941 25.3758 78.1941C19.781 78.1941 13.2235 73.4407 13.2235 67.6653C13.2235 60.8672 18.6371 55.8739 24.9539 55.8739ZM140.094 23.3372C125.715 23.3372 116.873 34.7083 113.925 46.1387C99.2456 46.6801 84.8071 54.0791 84.8071 69.7809C84.8071 81.091 94.1311 90.2354 105.441 90.2354C111.878 90.2354 118.015 87.1078 121.805 82.2349C125.956 86.5062 132.513 90.2354 140.094 90.2354C157.42 90.2354 167.346 74.3538 167.647 58.1707C173.362 58.8927 178.332 62.2015 178.355 68.5183C178.375 73.7999 174.299 77.1318 168.538 78.7501C168.377 78.7954 168.067 78.8825 167.832 78.9486L172.507 90.2354C183.214 87.4698 190.388 79.0709 190.388 68.5184C190.388 54.5612 179.439 46.6794 166.264 45.9575C163.256 34.5872 154.472 23.3372 140.094 23.3372ZM140.034 35.3692C146.953 35.3692 151.464 40.7243 153.57 45.8981L126.618 46.0185C128.723 40.8447 133.116 35.3692 140.034 35.3692ZM155.615 57.9301C155.435 67.8566 150.262 78.2033 140.034 78.2033C129.927 78.2033 124.813 68.1573 124.572 58.0504L155.615 57.9301ZM112.54 58.2911C112.6 61.9608 114.104 65.5697 114.104 69.2996C114.104 74.2929 110.135 78.2033 105.262 78.2033C100.629 78.2033 96.8392 74.3538 96.8392 69.7215C96.8392 61.8405 104.9 58.8927 112.54 58.2911ZM223.989 23.2626C211.475 23.2626 202.744 33.3266 200.186 44.7598C199.555 47.5875 200.643 42.702 199.896 46.0529L210.848 50.5898C211.031 49.7756 211.911 47.4401 212.438 45.8828C214.258 40.507 217.852 35.2946 223.928 35.2946C239.148 35.2946 239.688 54.8844 239.691 57.5539C239.691 67.721 234.336 78.4303 223.928 78.4303C217.852 78.4303 214.258 73.218 212.438 67.8421C211.911 66.2849 211.031 63.9493 210.848 63.1352L199.896 67.6721C200.643 71.0229 199.555 66.1375 200.186 68.9651C202.744 80.3984 211.475 90.4624 223.989 90.4624C241.556 90.4624 251.723 74.159 251.723 57.6149C251.723 39.5466 242.052 23.2626 223.989 23.2626ZM320.139 25.0674C312.077 25.0674 305.58 29.0989 301.73 33.9117C299.684 31.4452 297.157 29.4599 294.209 28.016C291.605 26.7609 288.932 25.9895 286.324 25.7203C285.171 25.5426 284.008 25.4514 282.841 25.4508C270.381 25.4509 260.28 35.3792 260.28 47.6267C260.299 54.8706 264.603 61.1655 269.713 66.0159L279.341 59.0392C279.341 59.0392 278.3 57.6322 276.133 54.8828C274.399 52.6819 272.778 50.4473 272.78 47.7181C272.784 43.2838 275.959 39.4087 280.471 38.3475C281.633 38.0363 282.857 37.8711 284.102 37.8711C285.726 37.8711 287.351 38.2328 288.976 39.0149C294.33 41.6018 295.653 46.9055 295.773 54.9069L295.823 65.9009H307.956L307.987 54.9069C308.047 46.6649 309.431 41.131 314.845 38.3636C316.529 37.4612 318.334 37.0994 320.078 37.0994C324.229 37.0994 328.14 39.266 330.487 42.4545C332.412 45.0414 333.193 47.8088 333.193 50.516C333.193 55.3288 330.606 60.0213 327.418 63.2699C318.574 72.1736 300.827 78.0092 285.787 78.1897L260.28 78.4303V90.4624H366.762V25.0674H354.562C354.562 25.0674 354.632 62.8085 354.673 78.4303H327.421C335.001 73.7378 342.16 66.7593 344.507 57.0133C344.988 54.9678 345.228 52.8614 345.228 50.816C345.228 45.2812 343.544 39.8066 340.175 35.2946C335.543 29.0379 328.203 25.1275 320.322 25.0674H320.139ZM362.017 0.462646C345.321 0.462646 335.548 18.4072 335.548 18.4072L344.299 25.4756C345.027 24.4886 346.387 22.7664 348.178 20.4418C350.524 17.3981 354.617 12.5549 362.137 12.5549C373.086 12.5549 376.102 22.4816 376.102 33.7918L376.215 90.4624H388.247C388.247 90.4624 388.175 50.8372 388.135 33.7918C388.036 3.74899 369.087 0.462646 362.017 0.462646Z" fill="#0E0E41" stroke="#0E0E41" stroke-width="1.64278"/>
</g>
<defs>
<clipPath id="clip0_9_22">
<rect width="388" height="237" fill="white"/>
</clipPath>
</defs>
</svg>
